<svg width="24" height="24" viewBox="0 0 24 24" fill="none" xmlns="http://www.w3.org/2000/svg">
<g clip-path="url(#clip0_25789_64872)">
<rect width="24" height="24" fill="#669DF6"/>
<path d="M10.5755 9.57652V14.659C10.8239 14.6907 11.0743 14.7043 11.3247 14.6995C11.5495 14.7136 11.7749 14.7136 11.9996 14.6995V9.57652H10.5755Z" fill="white"/>
<path d="M8.44258 11.2099V12.9851C8.72238 13.4674 9.11936 13.8714 9.59677 14.1595V11.2099H8.44258Z" fill="white"/>
<path d="M13.1066 14.1258V11.9052H14.254V12.8974C13.9813 13.3971 13.5866 13.8196 13.1066 14.1258Z" fill="white"/>
<path fill-rule="evenodd" clip-rule="evenodd" d="M5.25 11.3247C5.25 7.96973 7.96973 5.25 11.3247 5.25C12.9358 5.25 14.4809 5.89001 15.6201 7.02923C16.7594 8.16846 17.3994 9.71358 17.3994 11.3247C17.3994 12.6553 16.9716 13.886 16.246 14.8867C16.2576 14.8954 16.2686 14.905 16.2789 14.9155L18.6683 17.3049C18.7772 17.4153 18.7772 17.5927 18.6683 17.7031L17.7031 18.6683C17.5927 18.7772 17.4153 18.7772 17.3049 18.6683L14.9155 16.2789C14.905 16.2686 14.8954 16.2576 14.8867 16.246C13.886 16.9716 12.6553 17.3994 11.3247 17.3994C7.96973 17.3994 5.25 14.6796 5.25 11.3247ZM6.82267 11.3292C6.82143 13.8175 8.83632 15.8365 11.3247 15.8402C12.5228 15.842 13.6724 15.3668 14.5196 14.5196C15.3668 13.6724 15.842 12.5228 15.8402 11.3247C15.8365 8.83632 13.8175 6.82143 11.3292 6.82267C8.84082 6.82392 6.82392 8.84082 6.82267 11.3292Z" fill="white"/>
</g>
<defs>
<clipPath id="clip0_25789_64872">
<rect width="24" height="24" rx="4" fill="white"/>
</clipPath>
</defs>
</svg>
