<svg width="24" height="24" viewBox="0 0 24 24" fill="none" xmlns="http://www.w3.org/2000/svg">
<g clip-path="url(#clip0_25789_64888)">
<rect width="24" height="24" fill="#FE5000"/>
<path fill-rule="evenodd" clip-rule="evenodd" d="M12.0183 16.8714L5.18254 13.0214V11.45L12.0183 15.3L19.6397 10.9786V8.03214L19.2861 7.83571L12.0183 11.9214L5.53612 8.26786L12.0183 4.65357L17.3218 7.63929L17.8325 7.36429V7.01071L12.0183 3.75L4.35754 8.03214V8.50357L12.0183 12.825L18.854 8.975V10.5464L12.0183 14.3964L4.71112 10.3107L4.35754 10.4679V13.4536L12.0183 17.775L18.854 13.925V15.4964L12.0183 19.3464L4.71112 15.2607L4.35754 15.4571V15.9679L12.0183 20.25L19.6397 15.9679V12.9821L19.3254 12.7857L12.0183 16.8714Z" fill="white"/>
</g>
<defs>
<clipPath id="clip0_25789_64888">
<rect width="24" height="24" rx="4" fill="white"/>
</clipPath>
</defs>
</svg>
