<svg width="24" height="24" viewBox="0 0 24 24" fill="none" xmlns="http://www.w3.org/2000/svg">
<g clip-path="url(#clip0_25789_64902)">
<rect width="24" height="24" fill="#336791"/>
<path d="M15.831 8.66876C15.8597 8.65877 15.8893 8.65026 15.9197 8.64338C16.1858 8.58303 16.4184 8.66855 16.4477 8.87817L16.4495 8.89433C16.4706 9.14115 16.2236 9.56347 15.9819 9.61799C15.743 9.67216 15.474 9.37566 15.4519 9.12049C15.4361 8.93181 15.5884 8.76332 15.8027 8.67925L15.831 8.66876Z" fill="white"/>
<path d="M10.0721 8.91575L10.0503 8.91576L10.0394 9.03453C10.0161 9.28883 10.2607 9.68429 10.5035 9.73611C10.7444 9.78784 11.0128 9.50778 11.0363 9.24892C11.0554 9.03712 10.8996 8.87102 10.6828 8.79156L10.6559 8.78227C10.6288 8.77342 10.6008 8.76589 10.5722 8.75976C10.3531 8.71266 10.1548 8.76047 10.075 8.91021L10.0721 8.91575Z" fill="white"/>
<path fill-rule="evenodd" clip-rule="evenodd" d="M15.3739 4.00027C16.0504 3.99405 16.703 4.0947 17.3095 4.32557C18.0343 4.60151 18.6659 5.05395 19.1786 5.70263C20.0367 6.78862 19.0438 10.6632 17.1313 13.5481L17.1339 13.55C17.2246 13.615 17.3755 13.6653 17.6029 13.6856C17.8442 13.7071 18.1483 13.6917 18.5201 13.6329L18.5779 13.6235L18.6072 13.6185L18.6665 13.6081L18.6966 13.6026L18.7576 13.5911L18.7885 13.5851L18.8511 13.5725C19.1156 13.5184 19.3059 13.5249 19.4385 13.6249C19.5348 13.6974 19.5797 13.808 19.5684 13.9245C19.5605 14.0053 19.5275 14.0828 19.4752 14.1608C19.3115 14.4054 18.9246 14.6909 18.4803 14.8953C18.1051 15.0677 17.5088 15.1793 16.9784 15.1851C16.7044 15.1881 16.4638 15.1625 16.2797 15.1058L16.2726 15.1036L16.2721 15.1088L16.2542 15.2692L16.2301 15.4787L16.2126 15.6269L16.1846 15.8589L16.16 16.0588L16.1294 16.3031L16.0926 16.5891L16.0662 16.7909L16.0346 17.0267L16.0139 17.1782L15.9887 17.359L15.9644 17.5284L15.9458 17.6541L15.9282 17.7698L15.9198 17.8235L15.9077 17.8986L15.8963 17.9665L15.8927 17.9875C15.6917 19.142 15.1825 19.6661 13.9724 19.9231C13.2851 20.0689 12.7493 19.953 12.3528 19.6223C12.0911 19.4039 11.9375 19.1565 11.7832 18.7891L11.7635 18.7416L11.7537 18.7173C11.6993 18.5825 11.6539 18.3435 11.6181 18.0246L11.6106 17.9551L11.6033 17.8832L11.5964 17.8089L11.5897 17.7324L11.5865 17.6933L11.5803 17.6134L11.5744 17.5314L11.5688 17.4473L11.5635 17.3612L11.5585 17.2731L11.5538 17.183L11.5494 17.091L11.5452 16.9973L11.5414 16.9017L11.5379 16.8045L11.5347 16.7055L11.5318 16.605L11.5293 16.5029L11.527 16.3993L11.525 16.2942L11.5242 16.2412L11.5227 16.134L11.522 16.08L11.521 15.9709L11.52 15.8049L11.5198 15.6928L11.5198 15.5796L11.5202 15.4654L11.5209 15.3502L11.5214 15.2947C11.2035 15.5806 10.8332 15.7511 10.4261 15.8201C10.0216 15.8886 9.6306 15.8539 9.24012 15.7571C8.94916 15.6851 8.66498 15.5311 8.55831 15.3353C8.46314 15.1605 8.50798 14.9678 8.67314 14.8344C8.79812 14.7335 8.9965 14.6589 9.28035 14.601L9.37375 14.5815L9.4388 14.5674L9.49976 14.5537L9.53823 14.5448L9.57502 14.5359L9.6102 14.5272L9.64382 14.5186L9.69144 14.5059L9.7214 14.4975L9.7531 14.4882L9.76983 14.4832L9.80182 14.4732L9.83195 14.4632C9.99759 14.4071 10.0789 14.3519 10.1679 14.2526L10.1691 14.2513L10.3559 14.0228L10.433 13.93L10.4555 13.9035C10.4551 13.8996 10.4548 13.8957 10.4545 13.8918L10.4534 13.8765L10.4521 13.8765C10.1142 13.8682 9.79423 13.7789 9.50859 13.6265L9.437 13.7022L9.37446 13.7689L9.30898 13.8392L9.24071 13.9129L9.16977 13.9899C8.84867 14.3398 8.51882 14.7131 8.19889 15.0943C7.63443 15.7663 6.99388 15.7932 6.41882 15.2397C6.28093 15.107 6.1459 14.941 6.01364 14.7439L5.98534 14.7012C5.95708 14.658 5.92895 14.6134 5.90095 14.5674L5.87299 14.5209L5.84511 14.4735L5.81732 14.4252L5.78961 14.376L5.76198 14.3258L5.73444 14.2747L5.70698 14.2228L5.6796 14.1699L5.65231 14.1161L5.63869 14.0889L5.61152 14.0338L5.58444 13.9778C5.57091 13.9496 5.55742 13.9211 5.54396 13.8922L5.51708 13.834L5.49028 13.775L5.46356 13.7151L5.43692 13.6543L5.41036 13.5927L5.38389 13.5302L5.35749 13.4669L5.33118 13.4028L5.30495 13.3378L5.27879 13.272L5.25272 13.2054L5.22673 13.1379L5.21376 13.1039L5.18789 13.0352L5.17498 13.0006C4.86668 12.1701 4.5864 11.1918 4.36134 10.2082L4.34009 10.1145L4.3091 9.9751L4.28515 9.8648L4.26769 9.78292L4.25631 9.72878L4.23961 9.64831L4.21809 9.5425L4.19743 9.43858L4.17767 9.33673L4.15884 9.23714L4.14535 9.16405L4.12822 9.06888L4.11209 8.9765L4.10442 8.93142L4.08987 8.84358L4.07967 8.77984L4.06704 8.69785L4.05831 8.63871L4.05024 8.58168L4.04283 8.52683L4.03609 8.47426L4.03199 8.44051L4.02641 8.39189L4.02155 8.34576L4.01741 8.30219L4.01401 8.26126L4.01216 8.23549L4.01064 8.21095L4.01001 8.19915C3.93816 6.77652 4.25445 5.74842 4.915 5.08597C5.47553 4.52384 6.25198 4.25362 7.1808 4.22035C7.87656 4.19543 8.61577 4.3036 9.34941 4.49881C9.56497 4.55616 9.76543 4.61737 9.94678 4.67892L10.0075 4.69979L10.0706 4.72208L10.1199 4.73998C10.679 4.36214 11.3622 4.16709 12.1727 4.18025C12.5953 4.18711 12.9953 4.2385 13.3727 4.33037L13.3768 4.32846L13.3906 4.32281L13.4041 4.3177L13.4298 4.30853L13.4607 4.2981L13.4958 4.28672L13.5172 4.28001L13.5617 4.26645L13.6086 4.25272L13.6577 4.23888L13.7089 4.22499C13.7525 4.21341 13.7981 4.20184 13.8455 4.1904L13.9033 4.17676C14.3582 4.07144 14.8572 4.00502 15.3739 4.00027ZM9.11126 13.3558C8.52411 12.8568 8.17531 12.0535 8.28221 11.1851L8.28826 11.1393C8.37068 10.5557 8.38085 10.0151 8.34936 9.40108L8.34027 9.2391L8.33292 9.11468L8.33019 9.06446L8.32868 9.03258L8.32714 8.98832L8.32676 8.95895L8.32678 8.95422L8.32638 8.91972L8.32633 8.89321L8.32666 8.84972L8.32716 8.81831L8.32791 8.785L8.32952 8.73156L8.33177 8.67405C8.339 8.50746 8.35314 8.32706 8.37579 8.13643C8.43809 7.61225 8.55417 7.09145 8.73792 6.60244C8.96266 6.00433 9.27499 5.49154 9.68818 5.09116C9.54478 5.04461 9.38989 4.9986 9.22567 4.9549C8.53424 4.77093 7.83989 4.66932 7.19804 4.69231C6.3808 4.72158 5.71886 4.95195 5.25434 5.4178C4.70283 5.97089 4.42621 6.85763 4.48444 8.13668L4.48688 8.18612L4.48825 8.20819L4.48995 8.2315L4.49197 8.25602L4.49431 8.28173L4.4984 8.32249L4.50151 8.35108L4.50674 8.39603L4.5106 8.42735L4.51921 8.4931L4.52896 8.56285L4.53984 8.6364L4.5518 8.71358L4.56148 8.77372L4.5789 8.87801L4.59397 8.96488L4.60591 9.03192L4.62267 9.12365L4.64492 9.24183L4.66856 9.36356L4.69354 9.48847L4.70389 9.53924L4.7252 9.64203L4.74169 9.72012L4.76434 9.82542L4.78771 9.93189L4.81177 10.0393C5.03504 11.0261 5.31538 12.0101 5.62259 12.8376L5.64689 12.9026L5.65907 12.9348L5.68347 12.9987L5.70792 13.0617L5.73244 13.1239L5.75701 13.1853L5.78163 13.2459L5.8063 13.3057L5.81866 13.3353L5.8434 13.3939L5.8682 13.4516L5.89304 13.5084L5.90547 13.5366L5.93038 13.5922L5.95532 13.6469L5.9803 13.7008L6.00532 13.7539L6.03037 13.806L6.04291 13.8318L6.06802 13.8826L6.08058 13.9077L6.10573 13.9572L6.1309 14.0058L6.1561 14.0535L6.16871 14.0771L6.19395 14.1234L6.20657 14.1463L6.23184 14.1912L6.25712 14.2353L6.28242 14.2784L6.29508 14.2996L6.3204 14.3413C6.35418 14.3963 6.38798 14.4488 6.42179 14.4987L6.44716 14.5356C6.54862 14.6814 6.65014 14.8037 6.7512 14.901C7.1022 15.2389 7.40214 15.2509 7.75225 14.8821L7.7749 14.8578L7.79771 14.8324L7.82066 14.8059L7.8322 14.7923C8.15694 14.4054 8.49133 14.0269 8.81687 13.6723L8.88885 13.5941L8.98064 13.4951L9.08819 13.3802L9.11126 13.3558ZM8.82403 8.44394L8.83763 8.4364C9.12012 8.28063 9.4561 8.1479 9.78035 8.07383C10.186 7.98118 10.5578 7.98135 10.8682 8.10005C11.2479 8.24524 11.5057 8.55733 11.6078 9.02488C11.7851 9.83689 11.8329 10.5028 11.7719 11.0729C11.725 11.511 11.6244 11.8552 11.4514 12.2564L11.425 12.3166L11.3048 12.5832L11.2892 12.6184L11.2679 12.6671L11.255 12.6974L11.2431 12.7262L11.2318 12.7539L11.2213 12.7807L11.2113 12.807L11.1658 12.929L11.1248 13.0401L11.0941 13.1249L11.0716 13.188L11.0509 13.2472L11.0321 13.3026L11.015 13.3545L11.007 13.3792L10.9924 13.4262L10.9825 13.4595L10.9734 13.4913L10.9664 13.5173C10.9996 13.5088 11.0332 13.5031 11.0672 13.5002C11.2028 13.4884 11.2994 13.5135 11.4507 13.5756C11.7463 13.6969 11.9582 14.0081 12.0027 14.3306C12.0112 14.3561 12.0156 14.3835 12.0148 14.412L12.0116 14.5284L12.0088 14.6444L12.0063 14.76L12.0041 14.8749L12.0031 14.9322L12.0014 15.0463L12.0006 15.103L11.9993 15.216L11.9984 15.3283L11.9977 15.4396L11.9973 15.5501L11.9972 15.6596L11.9976 15.8219L11.9983 15.9288L11.9992 16.0345L12.0004 16.1389L12.0019 16.2421L12.0036 16.3439L12.0057 16.4442L12.008 16.5432L12.0106 16.6406L12.0134 16.7363L12.0165 16.8305L12.0199 16.9229L12.0217 16.9685L12.0254 17.0582L12.0274 17.1024L12.0316 17.1894L12.0337 17.2321L12.0382 17.3161L12.043 17.3981L12.0455 17.4383L12.0506 17.5171L12.056 17.5937L12.0617 17.668L12.0646 17.7043L12.0705 17.7752L12.0768 17.8436L12.0832 17.9096C12.0898 17.9744 12.0967 18.0354 12.1039 18.0923L12.1113 18.1479L12.1188 18.2007C12.1419 18.3549 12.1679 18.4711 12.1965 18.5419L12.2056 18.5644L12.2238 18.6083C12.3509 18.9104 12.4708 19.1032 12.6601 19.2611C12.9396 19.4943 13.3246 19.5775 13.8724 19.4613C14.8923 19.2448 15.2548 18.8716 15.4227 17.9073L15.4299 17.8653L15.4453 17.7717L15.4576 17.6935L15.4705 17.6091L15.4885 17.4876L15.5123 17.323L15.542 17.1099L15.5676 16.922L15.5937 16.7272L15.625 16.4874L15.6612 16.2043L15.6914 15.9633L15.7202 15.728L15.7472 15.5023L15.7719 15.2901L15.7869 15.1581L15.8037 15.0058L15.8154 14.8955L15.8254 14.7968L15.8335 14.7108L15.8384 14.6553L15.8398 14.637C15.8105 14.0578 16.0002 13.7187 16.3628 13.5573C16.4037 13.5391 16.4451 13.5238 16.4908 13.5093L16.5191 13.5006L16.5496 13.4917L16.543 13.4823L16.5289 13.463L16.5133 13.4423L16.4961 13.42L16.4655 13.3814L16.373 13.2663L16.3358 13.2196C16.2733 13.14 16.2198 13.0676 16.1683 12.991C16.0703 12.8454 15.9862 12.6943 15.9144 12.5282L15.8976 12.4888L15.8879 12.4697L15.853 12.4045L15.5568 11.8647L15.4859 11.7346L15.4125 11.599L15.3736 11.5262L15.3377 11.4583L15.3054 11.3965L15.284 11.3548C15.1111 11.0139 14.9689 10.6955 14.8594 10.3923L14.8412 10.341L14.8236 10.2903L14.8067 10.2399C14.7847 10.1731 14.7645 10.1075 14.7462 10.0431L14.7328 9.995C14.5746 9.41266 14.5763 8.93083 14.7857 8.56156C15.0669 8.0657 15.6735 7.85924 16.6122 7.94855L16.6439 7.95167L16.6386 7.93627C16.6176 7.87562 16.5925 7.80946 16.5636 7.73985L16.5549 7.71887C16.3859 7.31678 16.1339 6.88177 15.8158 6.47903C14.9345 5.36332 13.722 4.67774 12.1649 4.65246C11.3431 4.63911 10.6894 4.86282 10.1773 5.28891C9.74164 5.65139 9.41479 6.15525 9.18487 6.76714C9.01563 7.21754 8.90756 7.70241 8.84942 8.19163C8.83913 8.27817 8.83073 8.36242 8.82403 8.44394ZM14.1767 4.60076C14.9698 4.94665 15.6419 5.4923 16.1914 6.18806C16.5368 6.62534 16.8102 7.09723 16.9952 7.53742L17.0149 7.58505C17.0245 7.60867 17.0338 7.632 17.0427 7.65497L17.06 7.70043C17.1019 7.81284 17.1344 7.91558 17.1557 8.00213C17.1592 8.01658 17.1625 8.03056 17.1654 8.0441C17.2211 8.08468 17.2583 8.14554 17.2624 8.21506C17.2774 8.46475 17.2612 8.68332 17.2154 8.97485L17.1989 9.07558L17.1683 9.25554L17.1563 9.32825L17.1456 9.39601L17.136 9.45952L17.1303 9.49986L17.125 9.53883L17.1226 9.55787L17.1159 9.61351L17.1119 9.64963L17.1084 9.68522L17.1053 9.72048L17.1025 9.75563L17.1001 9.79087L17.0981 9.82641L17.0963 9.86246L17.0949 9.89923C17.0941 9.92151 17.0935 9.94332 17.0932 9.96503L17.0931 9.9867L17.0932 10.0188L17.0937 10.0503L17.0946 10.0823L17.0965 10.1261L17.0985 10.1601L17.1009 10.1954L17.1049 10.2448L17.1099 10.2974L17.1157 10.3538L17.1244 10.4305L17.1369 10.533L17.1465 10.6085L17.1774 10.8435L17.1871 10.9207L17.196 10.9942L17.204 11.0641L17.2112 11.1308L17.2175 11.1946L17.2212 11.2356L17.2261 11.2951L17.2289 11.3336L17.2313 11.3712L17.2333 11.408L17.2349 11.4441L17.2362 11.4796L17.237 11.5145L17.2373 11.5319L17.2376 11.5662L17.2376 11.6002L17.2371 11.634L17.2363 11.6676L17.2357 11.6845L17.2344 11.7181L17.2326 11.7517L17.2316 11.7686L17.2292 11.8026L17.2265 11.8369L17.2235 11.8715C17.184 12.2923 17.0513 12.6747 16.7988 13.0377L16.8527 13.1048C17.6969 11.7874 18.357 10.2707 18.7226 8.86904C18.7697 8.68825 18.811 8.51227 18.8466 8.34208L18.8626 8.26395C19.0833 7.16299 19.0576 6.31592 18.803 5.99368C17.9494 4.91353 16.7577 4.45983 15.3783 4.47252C14.9607 4.47636 14.5541 4.52384 14.1767 4.60076ZM16.4768 12.5882C16.6045 12.3514 16.6753 12.1032 16.7008 11.8318L16.7035 11.8015L16.7047 11.7865L16.7069 11.7565L16.7087 11.7267L16.7102 11.6969L16.7114 11.6671L16.7122 11.6372L16.7127 11.6071L16.7129 11.5767L16.7127 11.546L16.7121 11.5149L16.7113 11.4832L16.71 11.451L16.7085 11.418L16.7065 11.3844L16.703 11.3323L16.7002 11.2964L16.697 11.2595L16.6916 11.2021L16.6854 11.1419L16.6808 11.1001L16.6733 11.0348L16.6649 10.9659L16.6525 10.8683L16.6248 10.6573L16.6145 10.5771L16.6033 10.4853L16.5956 10.4179L16.5905 10.3704L16.5845 10.3107L16.5819 10.2823L16.5785 10.2412L16.5756 10.2016L16.5732 10.1634L16.5713 10.1263L16.5699 10.09L16.5689 10.0542L16.5686 10.0306L16.5684 10.0065C16.5683 9.96631 16.5691 9.92607 16.5706 9.88403L16.5723 9.84213L16.5732 9.82153L16.5754 9.78089L16.5766 9.76079L16.5794 9.72088L16.5825 9.68116L16.5861 9.64139L16.5901 9.60133L16.5945 9.56074L16.5995 9.51939L16.6021 9.49834L16.6078 9.45539L16.6174 9.38832L16.6244 9.3415L16.6361 9.26752L16.6491 9.18832L16.6848 8.97777L16.6911 8.93954L16.7003 8.88082C16.726 8.71279 16.7401 8.5743 16.7428 8.43855C15.8703 8.32291 15.3869 8.46586 15.2015 8.79282C15.0619 9.03891 15.0667 9.42003 15.2036 9.90828L15.2164 9.95296L15.23 9.99823L15.237 10.0211L15.2516 10.0672L15.2592 10.0905L15.2749 10.1375L15.2913 10.1851L15.3084 10.2332C15.4062 10.504 15.5337 10.7916 15.6889 11.1005L15.7164 11.155L15.7442 11.2088L15.7849 11.2858L15.8504 11.4081L15.9123 11.5222L16.2447 12.1302L16.2987 12.2305L16.3228 12.2768L16.3326 12.2962L16.3377 12.3069L16.34 12.3123C16.3806 12.4096 16.4259 12.5006 16.4768 12.5882ZM16.8182 13.9052L16.8071 13.909C16.7978 13.912 16.7881 13.9151 16.7779 13.9181L16.7576 13.9241L16.6622 13.9511L16.6534 13.9537C16.616 13.9651 16.5857 13.9759 16.5583 13.9881C16.389 14.0635 16.3019 14.2107 16.3144 14.5735L16.3158 14.6077L16.3197 14.6105C16.3383 14.6235 16.3689 14.6379 16.4106 14.6515L16.4213 14.6548C16.5508 14.6947 16.7447 14.7153 16.9732 14.7128C17.4406 14.7077 17.9717 14.6084 18.2795 14.4669C18.5514 14.3419 18.7954 14.182 18.9489 14.0423L18.9592 14.0327L18.8848 14.0476L18.8539 14.0537L18.7926 14.0653L18.7322 14.0763L18.6727 14.0866L18.6142 14.0963L18.5566 14.1054L18.4998 14.1138C18.4623 14.1192 18.4254 14.1242 18.3891 14.1288L18.335 14.1354L18.3083 14.1384L18.2556 14.1441L18.2296 14.1467L18.1782 14.1514L18.1528 14.1536L18.1027 14.1574L18.078 14.1591L18.0292 14.1621L18.0052 14.1633L17.9577 14.1654C17.8321 14.1701 17.7157 14.1685 17.6081 14.161L17.5681 14.1579C17.2649 14.132 17.0336 14.0571 16.8654 13.9404L16.8544 13.9326C16.845 13.9259 16.8359 13.9191 16.8271 13.9123L16.8182 13.9052ZM10.3457 15.3545C10.7937 15.2786 11.1789 15.0504 11.4861 14.6244C11.6103 14.4522 11.4778 14.098 11.2681 14.0119L11.2471 14.0034L11.228 13.996L11.2107 13.9896L11.195 13.9842L11.1876 13.9819L11.1739 13.9779C11.1477 13.9708 11.1281 13.969 11.1087 13.9706C11.0569 13.9751 10.9948 14.0097 10.9112 14.1024L10.905 14.1093L10.8779 14.1401L10.8395 14.1848L10.8062 14.2243L10.745 14.2979L10.546 14.5407L10.5264 14.564L10.5136 14.5782C10.3608 14.745 10.2018 14.8427 9.93053 14.9282L9.891 14.9403L9.87064 14.9463L9.83776 14.9557L9.80358 14.9651L9.78599 14.9699L9.74976 14.9793L9.71207 14.9888L9.67287 14.9984L9.63208 15.0081L9.58965 15.0179L9.5455 15.0277L9.49958 15.0378L9.42722 15.0531L9.35758 15.0675L9.33902 15.0714L9.30318 15.0795C9.25071 15.0916 9.20405 15.1041 9.16321 15.1166L9.13685 15.125C9.09861 15.1375 9.06619 15.1501 9.03962 15.1624L9.03806 15.1631L9.04156 15.1655C9.05576 15.175 9.07207 15.185 9.09025 15.1952L9.09949 15.2003C9.17611 15.2418 9.27056 15.2779 9.35583 15.299C9.68768 15.3812 10.0163 15.4104 10.3457 15.3545ZM10.9989 12.1029C11.1634 11.7275 11.2551 11.4205 11.2976 11.0231C11.3436 10.5936 11.3209 10.0959 11.2162 9.5012L11.203 9.42789C11.1848 9.32949 11.1644 9.22847 11.1417 9.12471C11.0146 8.54289 10.5786 8.37616 9.88754 8.53402C9.609 8.59765 9.31453 8.71397 9.06963 8.84902C8.96629 8.906 8.87958 8.96239 8.8219 9.00884L8.80919 9.01932L8.80557 9.02236L8.80839 9.07627L8.82257 9.31939C8.85911 9.98454 8.85048 10.5679 8.76055 11.2047C8.59515 12.3761 9.44788 13.3977 10.4953 13.4048L10.5048 13.4047L10.5084 13.3902C10.5125 13.3741 10.5167 13.3578 10.5212 13.3412L10.536 13.2884L10.5504 13.2384L10.5615 13.2013L10.5765 13.1544L10.5923 13.1079L10.6202 13.0296L10.6666 12.9038L10.7642 12.6426L10.7757 12.6123L10.7878 12.5816L10.8004 12.5503L10.807 12.5344L10.8209 12.5015L10.8434 12.4493L10.8514 12.431L10.9989 12.1029Z" fill="white"/>
</g>
<defs>
<clipPath id="clip0_25789_64902">
<rect width="24" height="24" rx="4" fill="white"/>
</clipPath>
</defs>
</svg>
