<svg width="24" height="24" viewBox="0 0 24 24" fill="none" xmlns="http://www.w3.org/2000/svg">
<g clip-path="url(#clip0_8223_35172)">
<rect width="24" height="24" fill="#29B5E8"/>
<path fill-rule="evenodd" clip-rule="evenodd" d="M13.7914 9.87943C13.9917 9.89559 14.1999 9.85387 14.3877 9.74846L17.8852 7.77994C18.3781 7.50231 18.5453 6.88894 18.262 6.40713C17.9781 5.92752 17.349 5.76296 16.8568 6.04036L14.8982 7.14391V4.94064C14.8982 4.38724 14.4378 3.9375 13.8679 3.9375C13.2981 3.9375 12.8388 4.38724 12.8388 4.94064V8.87815C12.8388 9.40622 13.2579 9.84108 13.7914 9.87943ZM9.30714 11.9876C9.30977 12.0968 9.29522 12.2073 9.2603 12.3145C9.18652 12.5477 9.02644 12.7552 8.79056 12.8876L5.29499 14.8568C4.80153 15.1337 4.17243 14.9699 3.88923 14.4907C3.60388 14.009 3.77194 13.3962 4.2654 13.1182L6.21874 12.0197L4.2654 10.9183C3.77194 10.6406 3.60329 10.028 3.88923 9.54823C4.17243 9.06781 4.80153 8.90313 5.29499 9.18007L8.79056 11.148C9.03634 11.2862 9.20035 11.5054 9.2696 11.7507C9.2926 11.8297 9.30309 11.9086 9.30714 11.9876ZM9.61144 14.2898C9.79929 14.1831 10.0081 14.142 10.209 14.1587C10.7413 14.1959 11.1615 14.6301 11.1615 15.1587V19.0962C11.1615 19.6511 10.6997 20.1008 10.1326 20.1008C9.56269 20.1008 9.10225 19.6511 9.10225 19.0962V16.8937L7.14236 17.9959C6.65093 18.2747 6.02243 18.1097 5.73708 17.6304C5.45304 17.1499 5.6211 16.534 6.11325 16.2565L9.61144 14.2898ZM9.61144 9.74846L6.11325 7.77994C5.6211 7.50231 5.45304 6.88894 5.73708 6.40713C6.02243 5.92752 6.65093 5.76296 7.14236 6.04036L9.10225 7.14391V4.94064C9.10225 4.38724 9.56269 3.9375 10.1326 3.9375C10.6997 3.9375 11.1615 4.38724 11.1615 4.94064V8.87815C11.1615 9.40622 10.7413 9.84108 10.209 9.87943C10.0081 9.89559 9.79929 9.85387 9.61144 9.74846ZM12.6873 12.0115C12.6873 11.9543 12.6518 11.8746 12.6103 11.8323L12.1893 11.4237C12.1479 11.3833 12.0661 11.3499 12.0073 11.3499H11.991C11.9324 11.3499 11.8507 11.3833 11.8098 11.4237L11.3888 11.8323C11.3467 11.8746 11.3144 11.9543 11.3144 12.0115V12.0275C11.3144 12.084 11.3467 12.163 11.3888 12.2041L11.8098 12.6139C11.8513 12.6543 11.9324 12.6877 11.991 12.6877H12.0073C12.0661 12.6877 12.1479 12.6543 12.1893 12.6139L12.6103 12.2041C12.6518 12.163 12.6873 12.084 12.6873 12.0275V12.0115ZM12.3956 13.8203L13.8495 12.4045C13.8909 12.3646 13.9246 12.2844 13.9246 12.2278V11.8104C13.9246 11.7525 13.8909 11.6722 13.8495 11.6318L12.3956 10.2161C12.354 10.1744 12.2723 10.1416 12.2131 10.1416H11.7855C11.7268 10.1416 11.6451 10.1744 11.6029 10.2161L10.1497 11.6318C10.1081 11.6722 10.0745 11.7525 10.0745 11.8104V12.2278C10.0745 12.2844 10.1081 12.3646 10.1497 12.4045L11.6029 13.8203C11.6451 13.8619 11.7268 13.896 11.7855 13.896H12.2131C12.2736 13.896 12.354 13.8619 12.3956 13.8203ZM17.8852 16.2565L14.3877 14.2898C14.1999 14.1831 13.9917 14.142 13.7914 14.1587C13.2579 14.1959 12.8388 14.6301 12.8388 15.1587V19.0962C12.8388 19.6511 13.2981 20.1008 13.8679 20.1008C14.4378 20.1008 14.8982 19.6511 14.8982 19.0962V16.8937L16.8568 17.9959C17.3489 18.2747 17.9781 18.1097 18.262 17.6304C18.5453 17.1499 18.3781 16.534 17.8852 16.2565ZM17.781 12.0197L19.7345 10.9183C20.2278 10.6406 20.3965 10.028 20.1113 9.54823C19.8266 9.06781 19.1969 8.90313 18.7054 9.18007L15.2072 11.148C14.9642 11.2863 14.8001 11.5054 14.7302 11.7507C14.7078 11.8297 14.696 11.9086 14.6939 11.9876C14.69 12.0968 14.7059 12.2073 14.7401 12.3145C14.8119 12.5477 14.9739 12.7552 15.2072 12.8876L18.7054 14.8568C19.1969 15.1337 19.8266 14.9699 20.1113 14.4907C20.3965 14.009 20.2278 13.3962 19.7345 13.1182L17.781 12.0197Z" fill="white"/>
</g>
<defs>
<clipPath id="clip0_8223_35172">
<rect width="24" height="24" rx="4" fill="white"/>
</clipPath>
</defs>
</svg>
